<svg id="visual" viewBox="0 0 780 350" width="780" height="350" xmlns="http://www.w3.org/2000/svg" xmlns:xlink="http://www.w3.org/1999/xlink" version="1.1"><rect x="0" y="0" width="780" height="350" fill="#001220"></rect><path d="M0 218L18.5 218C37 218 74 218 111.2 222.2C148.3 226.3 185.7 234.7 222.8 241C260 247.3 297 251.7 334.2 249C371.3 246.3 408.7 236.7 445.8 229.8C483 223 520 219 557.2 220.7C594.3 222.3 631.7 229.7 668.8 232C706 234.3 743 231.7 761.5 230.3L780 229L780 351L761.5 351C743 351 706 351 668.8 351C631.7 351 594.3 351 557.2 351C520 351 483 351 445.8 351C408.7 351 371.3 351 334.2 351C297 351 260 351 222.8 351C185.7 351 148.3 351 111.2 351C74 351 37 351 18.5 351L0 351Z" fill="#4eb0e0"></path><path d="M0 277L18.5 271.8C37 266.7 74 256.3 111.2 253.5C148.3 250.7 185.7 255.3 222.8 258C260 260.7 297 261.3 334.2 260C371.3 258.7 408.7 255.3 445.8 252.7C483 250 520 248 557.2 249.3C594.3 250.7 631.7 255.3 668.8 258.2C706 261 743 262 761.5 262.5L780 263L780 351L761.5 351C743 351 706 351 668.8 351C631.7 351 594.3 351 557.2 351C520 351 483 351 445.8 351C408.7 351 371.3 351 334.2 351C297 351 260 351 222.8 351C185.7 351 148.3 351 111.2 351C74 351 37 351 18.5 351L0 351Z" fill="#7ccbe4"></path><path d="M0 256L18.5 256.5C37 257 74 258 111.2 257.7C148.3 257.3 185.7 255.7 222.8 259C260 262.3 297 270.7 334.2 272.3C371.3 274 408.7 269 445.8 267.7C483 266.3 520 268.7 557.2 274.2C594.3 279.7 631.7 288.3 668.8 287C706 285.7 743 274.3 761.5 268.7L780 263L780 351L761.5 351C743 351 706 351 668.8 351C631.7 351 594.3 351 557.2 351C520 351 483 351 445.8 351C408.7 351 371.3 351 334.2 351C297 351 260 351 222.8 351C185.7 351 148.3 351 111.2 351C74 351 37 351 18.5 351L0 351Z" fill="#99dae7"></path><path d="M0 283L18.5 287.8C37 292.7 74 302.3 111.2 307.2C148.3 312 185.7 312 222.8 310.2C260 308.3 297 304.7 334.2 300.7C371.3 296.7 408.7 292.3 445.8 289.2C483 286 520 284 557.2 286.3C594.3 288.7 631.7 295.3 668.8 299.2C706 303 743 304 761.5 304.5L780 305L780 351L761.5 351C743 351 706 351 668.8 351C631.7 351 594.3 351 557.2 351C520 351 483 351 445.8 351C408.7 351 371.3 351 334.2 351C297 351 260 351 222.8 351C185.7 351 148.3 351 111.2 351C74 351 37 351 18.5 351L0 351Z" fill="#7ccbe4"></path><path d="M0 314L18.5 313.5C37 313 74 312 111.2 312C148.3 312 185.7 313 222.8 316C260 319 297 324 334.2 326C371.3 328 408.7 327 445.8 326.3C483 325.7 520 325.3 557.2 326.2C594.3 327 631.7 329 668.8 327.8C706 326.7 743 322.3 761.5 320.2L780 318L780 351L761.5 351C743 351 706 351 668.8 351C631.7 351 594.3 351 557.2 351C520 351 483 351 445.8 351C408.7 351 371.3 351 334.2 351C297 351 260 351 222.8 351C185.7 351 148.3 351 111.2 351C74 351 37 351 18.5 351L0 351Z" fill="#4eb0e0"></path></svg>