<svg id="visual" viewBox="0 0 960 350" width="960" height="350" xmlns="http://www.w3.org/2000/svg" xmlns:xlink="http://www.w3.org/1999/xlink" version="1.1"><rect x="0" y="0" width="960" height="350" fill="#001220"></rect><path d="M0 228L22.8 229.7C45.7 231.3 91.3 234.7 137 234.7C182.7 234.7 228.3 231.3 274 227.7C319.7 224 365.3 220 411.2 220.7C457 221.3 503 226.7 548.8 231.3C594.7 236 640.3 240 686 235.5C731.7 231 777.3 218 823 217.7C868.7 217.3 914.3 229.7 937.2 235.8L960 242L960 351L937.2 351C914.3 351 868.7 351 823 351C777.3 351 731.7 351 686 351C640.3 351 594.7 351 548.8 351C503 351 457 351 411.2 351C365.3 351 319.7 351 274 351C228.3 351 182.7 351 137 351C91.3 351 45.7 351 22.8 351L0 351Z" fill="#fa7268"></path><path d="M0 254L22.8 252.2C45.7 250.3 91.3 246.7 137 247.8C182.7 249 228.3 255 274 254.8C319.7 254.7 365.3 248.3 411.2 248C457 247.7 503 253.3 548.8 252.7C594.7 252 640.3 245 686 240.5C731.7 236 777.3 234 823 237.5C868.7 241 914.3 250 937.2 254.5L960 259L960 351L937.2 351C914.3 351 868.7 351 823 351C777.3 351 731.7 351 686 351C640.3 351 594.7 351 548.8 351C503 351 457 351 411.2 351C365.3 351 319.7 351 274 351C228.3 351 182.7 351 137 351C91.3 351 45.7 351 22.8 351L0 351Z" fill="#ef5f67"></path><path d="M0 264L22.8 263.3C45.7 262.7 91.3 261.3 137 264.2C182.7 267 228.3 274 274 274.7C319.7 275.3 365.3 269.7 411.2 271.2C457 272.7 503 281.3 548.8 280.2C594.7 279 640.3 268 686 263.2C731.7 258.3 777.3 259.7 823 259.8C868.7 260 914.3 259 937.2 258.5L960 258L960 351L937.2 351C914.3 351 868.7 351 823 351C777.3 351 731.7 351 686 351C640.3 351 594.7 351 548.8 351C503 351 457 351 411.2 351C365.3 351 319.7 351 274 351C228.3 351 182.7 351 137 351C91.3 351 45.7 351 22.8 351L0 351Z" fill="#e34c67"></path><path d="M0 307L22.8 305.2C45.7 303.3 91.3 299.7 137 297.7C182.7 295.7 228.3 295.3 274 295.8C319.7 296.3 365.3 297.7 411.2 299.5C457 301.3 503 303.7 548.8 305.3C594.7 307 640.3 308 686 305C731.7 302 777.3 295 823 295.8C868.7 296.7 914.3 305.3 937.2 309.7L960 314L960 351L937.2 351C914.3 351 868.7 351 823 351C777.3 351 731.7 351 686 351C640.3 351 594.7 351 548.8 351C503 351 457 351 411.2 351C365.3 351 319.7 351 274 351C228.3 351 182.7 351 137 351C91.3 351 45.7 351 22.8 351L0 351Z" fill="#d53867"></path><path d="M0 310L22.8 309.3C45.7 308.7 91.3 307.3 137 308.3C182.7 309.3 228.3 312.7 274 316C319.7 319.3 365.3 322.7 411.2 325C457 327.3 503 328.7 548.8 329.3C594.7 330 640.3 330 686 330C731.7 330 777.3 330 823 330.3C868.7 330.7 914.3 331.3 937.2 331.7L960 332L960 351L937.2 351C914.3 351 868.7 351 823 351C777.3 351 731.7 351 686 351C640.3 351 594.7 351 548.8 351C503 351 457 351 411.2 351C365.3 351 319.7 351 274 351C228.3 351 182.7 351 137 351C91.3 351 45.7 351 22.8 351L0 351Z" fill="#c62368"></path></svg>